<svg width="100" height="133" viewBox="0 0 100 133" fill="none" xmlns="http://www.w3.org/2000/svg">
<path d="M17.3016 123.188C17.1872 123.207 16.9965 123.217 16.7295 123.217C16.4626 123.236 16.1766 123.245 15.8715 123.245C15.5664 123.245 15.2708 123.236 14.9848 123.217C14.7178 123.217 14.5271 123.217 14.4127 123.217C14.3174 123.197 14.2125 123.178 14.0981 123.159C13.9837 123.121 13.8788 123.064 13.7835 122.988C13.6881 122.911 13.6214 122.816 13.5833 122.702C13.5451 122.587 13.5165 122.473 13.4975 122.358C13.4975 122.263 13.4879 122.092 13.4689 121.844C13.4689 121.577 13.4689 121.3 13.4689 121.014C13.4689 120.709 13.4689 120.433 13.4689 120.185C13.4689 119.918 13.4689 119.737 13.4689 119.641C13.4689 118.936 13.4689 118.24 13.4689 117.553C13.4879 116.848 13.4975 116.142 13.4975 115.437C13.4975 114.731 13.4879 114.026 13.4689 113.32C13.4689 112.615 13.4593 111.899 13.4402 111.175C13.4402 111.022 13.4402 110.708 13.4402 110.231C13.4402 109.735 13.4402 109.211 13.4402 108.658C13.4402 108.105 13.4307 107.59 13.4116 107.113C13.4116 106.618 13.4116 106.284 13.4116 106.112C13.4116 106.036 13.4021 105.893 13.383 105.683C13.383 105.473 13.3735 105.245 13.3544 104.997C13.3544 104.749 13.3449 104.52 13.3258 104.31C13.3258 104.081 13.3258 103.929 13.3258 103.853C13.3258 103.757 13.3354 103.662 13.3544 103.567C13.3735 103.471 13.4021 103.376 13.4402 103.281C13.5165 103.166 13.6119 103.08 13.7263 103.023C13.8598 102.966 13.9932 102.918 14.1267 102.88C14.3555 102.823 14.5844 102.804 14.8132 102.823C15.0611 102.823 15.2994 102.804 15.5282 102.766C15.8715 102.709 16.2147 102.68 16.5579 102.68C16.9012 102.68 17.2349 102.68 17.559 102.68C18.2073 102.68 18.8461 102.68 19.4754 102.68C20.1047 102.661 20.7339 102.642 21.3632 102.623C21.4776 102.623 21.7159 102.623 22.0782 102.623C22.4405 102.604 22.8219 102.594 23.2223 102.594C23.6228 102.575 24.0041 102.565 24.3664 102.565C24.7287 102.546 24.9766 102.546 25.1101 102.565C25.1482 102.565 25.215 102.575 25.3103 102.594C25.4247 102.613 25.501 102.613 25.5391 102.594C25.8061 102.556 26.0921 102.565 26.3972 102.623C26.7214 102.661 26.9788 102.785 27.1695 102.995C27.2648 103.09 27.3316 103.214 27.3697 103.366C27.4078 103.519 27.4364 103.671 27.4555 103.824C27.4746 103.977 27.4841 104.196 27.4841 104.482C27.4841 104.749 27.4746 105.035 27.4555 105.34C27.4555 105.626 27.4269 105.902 27.3697 106.169C27.3125 106.417 27.2362 106.598 27.1409 106.713C27.0455 106.827 26.9121 106.913 26.7404 106.97C26.5879 107.027 26.4354 107.066 26.2828 107.085C26.2065 107.085 26.0445 107.094 25.7966 107.113C25.5487 107.113 25.2913 107.123 25.0243 107.142C24.7573 107.142 24.4999 107.142 24.252 107.142C24.0041 107.142 23.8421 107.142 23.7658 107.142C22.7933 107.18 21.8303 107.209 20.8769 107.228C19.9426 107.247 18.9892 107.256 18.0167 107.256V110.374C18.6841 110.279 19.361 110.212 20.0474 110.174C20.7339 110.117 21.4204 110.078 22.1068 110.059C22.431 110.04 22.7552 110.012 23.0793 109.974C23.4035 109.935 23.7276 109.916 24.0518 109.916C24.2234 109.916 24.395 109.926 24.5667 109.945C24.7383 109.964 24.9004 110.021 25.0529 110.117C25.2436 110.231 25.3866 110.431 25.4819 110.717C25.5773 110.984 25.6345 111.28 25.6536 111.604C25.6917 111.909 25.7012 112.233 25.6822 112.576C25.6631 112.901 25.644 113.177 25.6249 113.406C25.5868 113.577 25.5391 113.749 25.4819 113.921C25.4438 114.092 25.358 114.226 25.2245 114.321C25.072 114.455 24.8908 114.54 24.6811 114.579C24.4904 114.598 24.2902 114.607 24.0804 114.607C23.8897 114.626 23.699 114.636 23.5084 114.636C23.3367 114.617 23.1461 114.607 22.9363 114.607C22.1164 114.607 21.2964 114.645 20.4765 114.722C19.6756 114.798 18.8747 114.884 18.0739 114.979V120.385C18.0739 120.423 18.0739 120.499 18.0739 120.614C18.0929 120.709 18.112 120.776 18.1311 120.814C18.1501 121.043 18.1692 121.281 18.1883 121.529C18.2073 121.758 18.1978 121.987 18.1597 122.215C18.1215 122.349 18.0834 122.473 18.0453 122.587C18.0262 122.702 17.969 122.807 17.8737 122.902C17.7211 123.054 17.5304 123.15 17.3016 123.188ZM33.3488 122.759C33.2344 122.873 33.0532 122.969 32.8053 123.045C32.5765 123.102 32.3286 123.15 32.0616 123.188C31.7947 123.226 31.5277 123.245 31.2608 123.245C31.0129 123.264 30.8127 123.264 30.6601 123.245C30.4122 123.226 30.1643 123.169 29.9165 123.074C29.6686 122.959 29.4874 122.797 29.373 122.587C29.2967 122.435 29.2205 122.177 29.1442 121.815C29.087 121.434 29.0298 121.043 28.9726 120.642C28.9154 120.223 28.8677 119.822 28.8296 119.441C28.7914 119.06 28.7724 118.783 28.7724 118.612C28.677 117.143 28.6293 115.685 28.6293 114.235C28.6484 112.786 28.677 111.327 28.7151 109.859C28.7342 109.23 28.7533 108.601 28.7724 107.971C28.8105 107.323 28.8296 106.684 28.8296 106.055C28.8296 105.845 28.82 105.645 28.801 105.454C28.801 105.264 28.801 105.063 28.801 104.854C28.801 104.739 28.8105 104.596 28.8296 104.425C28.8486 104.234 28.8772 104.043 28.9154 103.853C28.9535 103.662 29.0012 103.481 29.0584 103.309C29.1346 103.138 29.2205 103.014 29.3158 102.937C29.4302 102.842 29.6018 102.775 29.8306 102.737C30.0595 102.68 30.2978 102.642 30.5457 102.623C30.8127 102.604 31.0701 102.604 31.318 102.623C31.5849 102.642 31.7947 102.661 31.9472 102.68C32.1761 102.718 32.4049 102.747 32.6337 102.766C32.8816 102.785 33.0913 102.871 33.263 103.023C33.4155 103.157 33.5108 103.328 33.549 103.538C33.6062 103.729 33.6253 103.919 33.6062 104.11C33.5871 104.606 33.5585 105.092 33.5204 105.569C33.4822 106.045 33.4441 106.532 33.406 107.027C33.3678 107.256 33.3392 107.714 33.3202 108.4C33.3011 109.068 33.282 109.783 33.263 110.546C33.2439 111.289 33.2248 112.004 33.2058 112.691C33.2058 113.358 33.2058 113.806 33.2058 114.035C33.2058 115.16 33.2153 116.285 33.2344 117.41C33.2725 118.516 33.3964 119.613 33.6062 120.7C33.6443 120.909 33.6729 121.109 33.692 121.3C33.7301 121.491 33.7301 121.691 33.692 121.901C33.6729 122.053 33.6348 122.215 33.5776 122.387C33.5394 122.54 33.4632 122.664 33.3488 122.759ZM48.8275 123.302C48.6177 123.398 48.3984 123.445 48.1696 123.445C47.9408 123.464 47.7024 123.474 47.4545 123.474C47.3973 123.474 47.302 123.464 47.1685 123.445C47.035 123.445 46.8825 123.436 46.7109 123.417C46.5583 123.417 46.4153 123.407 46.2818 123.388C46.1483 123.388 46.0625 123.388 46.0244 123.388C45.9291 123.388 45.7574 123.388 45.5096 123.388C45.2807 123.388 45.0233 123.388 44.7373 123.388C44.4513 123.407 44.1843 123.426 43.9364 123.445C43.6885 123.464 43.5169 123.474 43.4216 123.474C42.7351 123.493 42.0486 123.484 41.3622 123.445C40.6948 123.407 40.0179 123.321 39.3314 123.188C38.8738 123.093 38.4066 122.969 37.9299 122.816C37.4722 122.664 37.0527 122.444 36.6714 122.158C36.3472 121.891 36.0802 121.577 35.8705 121.214C35.6607 120.852 35.5082 120.48 35.4128 120.099C35.2412 119.527 35.1554 118.936 35.1554 118.326C35.1554 117.696 35.2603 117.105 35.47 116.552C35.6226 116.152 35.8228 115.78 36.0707 115.437C36.3377 115.074 36.6332 114.75 36.9574 114.464C37.3387 114.121 37.7678 113.835 38.2445 113.606C38.7403 113.377 39.2551 113.177 39.789 113.005C40.2848 112.853 40.7901 112.748 41.305 112.691C41.8198 112.615 42.3442 112.557 42.8781 112.519C43.2404 112.481 43.6027 112.452 43.965 112.433C44.3273 112.414 44.6991 112.424 45.0805 112.462C45.0233 112.138 44.928 111.833 44.7945 111.547C44.6801 111.242 44.518 110.965 44.3082 110.717C44.0604 110.412 43.7743 110.193 43.4502 110.059C43.1832 109.945 42.8972 109.869 42.5921 109.831C42.287 109.792 41.9914 109.783 41.7054 109.802C41.305 109.84 40.9141 109.916 40.5327 110.031C40.1513 110.126 39.7795 110.231 39.4172 110.345C39.093 110.479 38.7879 110.631 38.5019 110.803C38.235 110.956 37.9394 111.08 37.6152 111.175C37.3292 111.232 37.0813 111.223 36.8716 111.146C36.719 111.07 36.5665 110.975 36.4139 110.86C36.2805 110.727 36.166 110.593 36.0707 110.46C35.9182 110.269 35.7942 110.078 35.6989 109.888C35.6035 109.697 35.5082 109.506 35.4128 109.316C35.3175 109.125 35.2508 108.925 35.2126 108.715C35.1936 108.505 35.2222 108.296 35.2984 108.086C35.3938 107.876 35.5177 107.685 35.6703 107.514C35.8419 107.323 36.0326 107.151 36.2423 106.999C36.2995 106.98 36.3949 106.932 36.5283 106.856C36.6618 106.78 36.8048 106.703 36.9574 106.627C37.129 106.551 37.2815 106.484 37.415 106.427C37.5485 106.37 37.6438 106.331 37.701 106.312C38.1778 106.103 38.6735 105.95 39.1884 105.855C39.7032 105.759 40.2085 105.693 40.7043 105.655C41.3717 105.597 42.0582 105.597 42.7637 105.655C43.4692 105.693 44.1462 105.817 44.7945 106.026C45.3284 106.217 45.8432 106.465 46.339 106.77C46.8348 107.075 47.2638 107.447 47.6261 107.886C47.9312 108.267 48.2077 108.658 48.4556 109.058C48.7035 109.459 48.9133 109.878 49.0849 110.317C49.3328 111.003 49.5044 111.718 49.5997 112.462C49.6951 113.206 49.7427 113.94 49.7427 114.664C49.7427 115.37 49.7046 116.075 49.6283 116.781C49.5711 117.467 49.5234 118.173 49.4853 118.898C49.4472 119.393 49.4281 119.88 49.4281 120.356C49.4472 120.833 49.4376 121.319 49.3995 121.815C49.3804 121.968 49.3614 122.13 49.3423 122.301C49.3232 122.473 49.2851 122.635 49.2279 122.788C49.1707 123.016 49.0372 123.188 48.8275 123.302ZM40.2753 119.069C41.0762 119.203 41.8675 119.269 42.6493 119.269C43.4311 119.269 44.2129 119.25 44.9947 119.212C45.0138 118.774 45.0424 118.354 45.0805 117.954C45.1187 117.534 45.1568 117.105 45.1949 116.667C44.8898 116.667 44.5847 116.667 44.2796 116.667C43.9745 116.667 43.6599 116.676 43.3358 116.695C42.859 116.714 42.3823 116.771 41.9056 116.867C41.4289 116.943 40.9713 117.077 40.5327 117.267C40.2085 117.363 39.9511 117.534 39.7604 117.782C39.7223 117.858 39.6842 117.973 39.646 118.125C39.6079 118.259 39.5984 118.364 39.6174 118.44C39.6365 118.554 39.7128 118.678 39.8462 118.812C39.9797 118.945 40.1227 119.031 40.2753 119.069ZM60.2788 122.702C59.8211 122.988 59.3158 123.159 58.7628 123.217C58.2098 123.293 57.6855 123.236 57.1897 123.045C56.5795 122.797 56.036 122.406 55.5593 121.872C55.1017 121.319 54.7108 120.738 54.3866 120.127C53.8718 119.174 53.4427 118.182 53.0995 117.153C52.7563 116.123 52.4512 115.065 52.1842 113.978C52.0317 113.349 51.8982 112.719 51.7838 112.09C51.6694 111.442 51.555 110.793 51.4406 110.145C51.3643 109.764 51.3071 109.373 51.269 108.972C51.2308 108.572 51.1927 108.162 51.1545 107.743C51.1355 107.533 51.145 107.323 51.1831 107.113C51.2403 106.884 51.3262 106.694 51.4406 106.541C51.5931 106.331 51.7838 106.179 52.0126 106.084C52.2414 105.988 52.4607 105.912 52.6705 105.855C52.823 105.817 53.0137 105.779 53.2425 105.74C53.4713 105.702 53.7002 105.683 53.929 105.683C54.1769 105.664 54.4057 105.674 54.6155 105.712C54.8252 105.731 54.9873 105.798 55.1017 105.912C55.1589 105.988 55.2066 106.055 55.2447 106.112C55.2828 106.169 55.321 106.227 55.3591 106.284C55.5307 106.703 55.6356 107.142 55.6737 107.6C55.7119 108.038 55.7691 108.477 55.8454 108.915C55.9788 109.678 56.1123 110.45 56.2458 111.232C56.3983 112.014 56.57 112.786 56.7606 113.549C56.9704 114.312 57.2088 115.065 57.4757 115.808C57.7427 116.533 58.0764 117.229 58.4768 117.896C58.7438 117.534 58.9821 117.153 59.1919 116.752C59.4016 116.333 59.6114 115.923 59.8211 115.522C60.2788 114.55 60.6697 113.558 60.9938 112.548C61.318 111.518 61.6136 110.488 61.8805 109.459C61.8996 109.382 61.9282 109.239 61.9663 109.03C62.0235 108.82 62.0807 108.601 62.1379 108.372C62.1951 108.124 62.2428 107.905 62.2809 107.714C62.3382 107.504 62.3858 107.361 62.424 107.285C62.5765 106.846 62.7863 106.494 63.0532 106.227C63.282 106.017 63.5681 105.912 63.9113 105.912C64.2736 105.893 64.6073 105.922 64.9124 105.998C65.1412 106.093 65.3605 106.179 65.5702 106.255C65.78 106.331 65.9897 106.427 66.1995 106.541C66.352 106.618 66.4951 106.713 66.6285 106.827C66.762 106.942 66.8669 107.075 66.9432 107.228C67.0194 107.38 67.048 107.552 67.029 107.743C67.029 107.933 67.0099 108.105 66.9718 108.257C66.9146 108.505 66.8383 108.744 66.7429 108.972C66.6476 109.182 66.5713 109.421 66.5141 109.688C66.19 110.946 65.8467 112.195 65.4844 113.434C65.1221 114.655 64.6931 115.847 64.1973 117.01C63.9876 117.525 63.7587 118.039 63.5109 118.554C63.263 119.05 62.996 119.527 62.71 119.984C62.3668 120.499 61.9949 121.005 61.5945 121.5C61.2131 121.977 60.7745 122.378 60.2788 122.702ZM72.646 107.685C72.4935 107.819 72.3123 107.905 72.1026 107.943C71.8928 107.981 71.6831 108 71.4733 108C71.3398 108 71.1301 108 70.8441 108C70.5771 107.981 70.2911 107.962 69.986 107.943C69.7 107.924 69.4235 107.895 69.1565 107.857C68.8896 107.819 68.6989 107.771 68.5845 107.714C68.3747 107.6 68.2031 107.399 68.0696 107.113C68.0315 107.018 68.0029 106.856 67.9838 106.627C67.9647 106.379 67.9457 106.122 67.9266 105.855C67.9266 105.569 67.9266 105.302 67.9266 105.054C67.9266 104.806 67.9266 104.625 67.9266 104.51C67.9266 104.453 67.9361 104.367 67.9552 104.253C67.9743 104.12 67.9933 103.996 68.0124 103.881C68.0505 103.748 68.0887 103.633 68.1268 103.538C68.165 103.424 68.2031 103.338 68.2412 103.281C68.3366 103.185 68.451 103.118 68.5845 103.08C68.737 103.023 68.8896 102.985 69.0421 102.966C69.1374 102.966 69.3186 102.966 69.5856 102.966C69.8525 102.966 70.1385 102.966 70.4436 102.966C70.7487 102.966 71.0348 102.975 71.3017 102.995C71.5687 102.995 71.7498 102.995 71.8452 102.995C71.9977 103.014 72.1598 103.052 72.3314 103.109C72.503 103.147 72.6365 103.233 72.7318 103.366C72.8462 103.519 72.9321 103.748 72.9893 104.053C73.0655 104.358 73.1132 104.682 73.1323 105.025C73.1513 105.369 73.1513 105.702 73.1323 106.026C73.1323 106.331 73.1227 106.579 73.1037 106.77C73.0655 106.942 73.0179 107.113 72.9607 107.285C72.9035 107.457 72.7986 107.59 72.646 107.685ZM71.931 123.245C71.7594 123.283 71.521 123.312 71.2159 123.331C70.9108 123.35 70.5962 123.35 70.272 123.331C69.9479 123.331 69.6428 123.312 69.3567 123.274C69.0707 123.236 68.8514 123.169 68.6989 123.074C68.6035 123.016 68.5177 122.94 68.4415 122.845C68.3842 122.749 68.3366 122.654 68.2984 122.559C68.2603 122.482 68.2317 122.339 68.2126 122.13C68.1936 121.92 68.1745 121.701 68.1554 121.472C68.1364 121.243 68.1173 121.024 68.0982 120.814C68.0982 120.604 68.0982 120.452 68.0982 120.356C68.041 119.327 68.0029 118.297 67.9838 117.267C67.9838 116.238 68.0029 115.208 68.041 114.178C68.0601 113.854 68.0601 113.501 68.041 113.12C68.041 112.738 68.0696 112.376 68.1268 112.033C68.184 111.69 68.2889 111.394 68.4415 111.146C68.594 110.898 68.8324 110.755 69.1565 110.717C69.3091 110.698 69.5283 110.689 69.8144 110.689C70.1195 110.67 70.4341 110.67 70.7583 110.689C71.0824 110.708 71.3875 110.746 71.6735 110.803C71.9596 110.86 72.1789 110.927 72.3314 111.003C72.4839 111.099 72.5984 111.242 72.6746 111.432C72.7509 111.623 72.7986 111.814 72.8176 112.004C72.8367 112.538 72.8176 113.072 72.7604 113.606C72.7223 114.14 72.6651 114.683 72.5888 115.236C72.5698 115.332 72.5602 115.503 72.5602 115.751C72.5602 115.98 72.5602 116.238 72.5602 116.524C72.5602 116.81 72.5602 117.077 72.5602 117.324C72.5602 117.572 72.5602 117.744 72.5602 117.839C72.5602 117.935 72.5698 118.116 72.5888 118.383C72.627 118.631 72.6651 118.907 72.7032 119.212C72.7414 119.517 72.7795 119.803 72.8176 120.07C72.8558 120.337 72.8749 120.509 72.8749 120.585C72.8749 120.68 72.8749 120.833 72.8749 121.043C72.8939 121.233 72.8939 121.443 72.8749 121.672C72.8558 121.882 72.8367 122.082 72.8176 122.273C72.7986 122.463 72.7604 122.606 72.7032 122.702C72.627 122.854 72.5126 122.978 72.36 123.074C72.2265 123.15 72.0835 123.207 71.931 123.245ZM88.1281 123.302C87.9183 123.398 87.699 123.445 87.4702 123.445C87.2414 123.464 87.003 123.474 86.7551 123.474C86.6979 123.474 86.6026 123.464 86.4691 123.445C86.3356 123.445 86.1831 123.436 86.0115 123.417C85.8589 123.417 85.7159 123.407 85.5824 123.388C85.449 123.388 85.3632 123.388 85.325 123.388C85.2297 123.388 85.0581 123.388 84.8102 123.388C84.5813 123.388 84.3239 123.388 84.0379 123.388C83.7519 123.407 83.4849 123.426 83.237 123.445C82.9891 123.464 82.8175 123.474 82.7222 123.474C82.0357 123.493 81.3493 123.484 80.6628 123.445C79.9954 123.407 79.3185 123.321 78.632 123.188C78.1744 123.093 77.7072 122.969 77.2305 122.816C76.7728 122.664 76.3533 122.444 75.972 122.158C75.6478 121.891 75.3809 121.577 75.1711 121.214C74.9613 120.852 74.8088 120.48 74.7135 120.099C74.5418 119.527 74.456 118.936 74.456 118.326C74.456 117.696 74.5609 117.105 74.7707 116.552C74.9232 116.152 75.1234 115.78 75.3713 115.437C75.6383 115.074 75.9338 114.75 76.258 114.464C76.6394 114.121 77.0684 113.835 77.5451 113.606C78.0409 113.377 78.5557 113.177 79.0897 113.005C79.5854 112.853 80.0907 112.748 80.6056 112.691C81.1204 112.615 81.6448 112.557 82.1787 112.519C82.541 112.481 82.9033 112.452 83.2656 112.433C83.6279 112.414 83.9998 112.424 84.3811 112.462C84.3239 112.138 84.2286 111.833 84.0951 111.547C83.9807 111.242 83.8186 110.965 83.6089 110.717C83.361 110.412 83.0749 110.193 82.7508 110.059C82.4838 109.945 82.1978 109.869 81.8927 109.831C81.5876 109.792 81.2921 109.783 81.006 109.802C80.6056 109.84 80.2147 109.916 79.8333 110.031C79.452 110.126 79.0801 110.231 78.7178 110.345C78.3937 110.479 78.0886 110.631 77.8025 110.803C77.5356 110.956 77.24 111.08 76.9159 111.175C76.6298 111.232 76.3819 111.223 76.1722 111.146C76.0196 111.07 75.8671 110.975 75.7145 110.86C75.5811 110.727 75.4667 110.593 75.3713 110.46C75.2188 110.269 75.0948 110.078 74.9995 109.888C74.9041 109.697 74.8088 109.506 74.7135 109.316C74.6181 109.125 74.5514 108.925 74.5132 108.715C74.4942 108.505 74.5228 108.296 74.599 108.086C74.6944 107.876 74.8183 107.685 74.9709 107.514C75.1425 107.323 75.3332 107.151 75.5429 106.999C75.6001 106.98 75.6955 106.932 75.829 106.856C75.9624 106.78 76.1055 106.703 76.258 106.627C76.4296 106.551 76.5822 106.484 76.7156 106.427C76.8491 106.37 76.9445 106.331 77.0017 106.312C77.4784 106.103 77.9742 105.95 78.489 105.855C79.0038 105.759 79.5092 105.693 80.0049 105.655C80.6723 105.597 81.3588 105.597 82.0643 105.655C82.7699 105.693 83.4468 105.817 84.0951 106.026C84.629 106.217 85.1439 106.465 85.6396 106.77C86.1354 107.075 86.5645 107.447 86.9268 107.886C87.2319 108.267 87.5083 108.658 87.7562 109.058C88.0041 109.459 88.2139 109.878 88.3855 110.317C88.6334 111.003 88.805 111.718 88.9003 112.462C88.9957 113.206 89.0434 113.94 89.0434 114.664C89.0434 115.37 89.0052 116.075 88.9289 116.781C88.8717 117.467 88.8241 118.173 88.7859 118.898C88.7478 119.393 88.7287 119.88 88.7287 120.356C88.7478 120.833 88.7383 121.319 88.7001 121.815C88.6811 121.968 88.662 122.13 88.6429 122.301C88.6238 122.473 88.5857 122.635 88.5285 122.788C88.4713 123.016 88.3378 123.188 88.1281 123.302ZM79.5759 119.069C80.3768 119.203 81.1681 119.269 81.9499 119.269C82.7317 119.269 83.5135 119.25 84.2953 119.212C84.3144 118.774 84.343 118.354 84.3811 117.954C84.4193 117.534 84.4574 117.105 84.4955 116.667C84.1904 116.667 83.8854 116.667 83.5803 116.667C83.2752 116.667 82.9605 116.676 82.6364 116.695C82.1597 116.714 81.683 116.771 81.2062 116.867C80.7295 116.943 80.2719 117.077 79.8333 117.267C79.5092 117.363 79.2517 117.534 79.0611 117.782C79.0229 117.858 78.9848 117.973 78.9466 118.125C78.9085 118.259 78.899 118.364 78.918 118.44C78.9371 118.554 79.0134 118.678 79.1469 118.812C79.2803 118.945 79.4234 119.031 79.5759 119.069Z" fill="black"/>
<path d="M66.7514 86.5716C94.793 97.0055 95.7869 70.0739 93.4826 61.825C78.4019 49.4451 28.9215 59.0662 6.06641 65.4243C6.06641 82.6377 14.3171 89.5844 27.6827 84.4438C37.5892 80.6336 47.2171 79.3032 66.7514 86.5716Z" fill="#FFCC00" stroke="black" stroke-width="3.55534"/>
<path d="M25.7038 53.5007C21.6637 55.1913 12.514 57.1281 7.76095 53.5007C5.65599 51.9938 4.34551 50.4853 3.61291 49.0356C1.93347 52.9798 0.290268 64.5826 5.74089 66.7629C6.81033 67.1986 9.56711 67.5709 12.0387 65.5746C15.1282 63.0793 20.2377 64.624 21.5448 67.5947C23.2084 70.2881 27.6763 74.0589 32.2392 67.5947C36.8022 61.1305 38.7351 59.7555 40.3194 60.6665C45.5478 63.6729 43.7179 67.8323 48.7561 68.3076C52.5586 68.6664 51.3703 61.9736 59.3317 61.9736C65.0354 61.9736 63.6667 70.0502 71.8917 70.0502C76.0042 70.0502 77.0323 61.9736 81.1448 61.9736C85.901 61.9736 88.3417 65.5746 91.4261 63.8814C93.8255 62.5643 102.735 53.9761 93.4823 43.319C92.8784 48.1904 89.7875 52.5668 87.6124 53.5007C80.6017 56.511 66.6276 59.9649 55.8857 53.9761C45.1438 47.9872 31.2886 51.1638 25.7038 53.5007Z" fill="#88C23A" stroke="black" stroke-width="3.55731"/>
<path d="M25.7038 53.5007C21.6637 55.1913 12.514 57.1281 7.76096 53.5007C-0.604428 47.5119 3.57776 37.3867 6.71453 35.129C7.28232 38.9977 92.6807 33.4655 92.6807 33.4655C95.6897 42.5913 90.7019 52.1742 87.6124 53.5007C80.6017 56.511 66.6277 59.9649 55.8857 53.976C45.1438 47.9872 31.2886 51.1638 25.7038 53.5007Z" fill="#CD0067" stroke="black" stroke-width="3.55534"/>
<path d="M15.3195 46.0519C2.58133 42.4395 6.52637 28.4655 10.5665 24.3065C50.7808 -17.0907 97.3099 7.9085 94.4581 29.0596C91.6062 50.2108 67.2468 49.9732 57.3842 45.3389C47.5216 40.7047 37.3025 39.2788 30.767 43.3189C25.5386 46.5509 18.2902 46.4876 15.3195 46.0519Z" fill="#FFCC00" stroke="black" stroke-width="3.55534"/>
<path d="M47.2713 27.0197C48.1994 35.5517 57.8206 34.7783 56.7891 25.2952L47.2713 27.0197Z" fill="black"/>
<path d="M39.1413 22.5622C39.1413 24.0716 37.9177 25.2953 36.4083 25.2953C34.8989 25.2953 33.6753 24.0716 33.6753 22.5622C33.6753 21.0528 34.8989 19.8292 36.4083 19.8292C37.9177 19.8292 39.1413 21.0528 39.1413 22.5622Z" fill="black"/>
<path d="M65.996 17.0962C65.996 18.6056 64.7724 19.8292 63.263 19.8292C61.7536 19.8292 60.53 18.6056 60.53 17.0962C60.53 15.5868 61.7536 14.3632 63.263 14.3632C64.7724 14.3632 65.996 15.5868 65.996 17.0962Z" fill="black"/>
</svg>
