<svg width="115" height="106" viewBox="0 0 115 106" fill="none" xmlns="http://www.w3.org/2000/svg">
<path d="M77.4212 100.276C109.675 112.277 110.818 81.3 108.168 71.812C90.8218 57.5724 33.9085 68.6387 7.62012 75.9519C7.62012 95.751 17.1102 103.741 32.4836 97.8285C43.8783 93.4459 54.9524 91.9156 77.4212 100.276Z" fill="#FFCC00" stroke="black" stroke-width="4.08942"/>
<path d="M30.2076 62.237C25.5606 64.1815 15.0365 66.4093 9.56947 62.237C7.14831 60.5037 5.64096 58.7686 4.79832 57.1011C2.86659 61.6378 0.976548 74.9836 7.24596 77.4914C8.47605 77.9925 11.6469 78.4208 14.4898 76.1246C18.0434 73.2544 23.9205 75.0312 25.424 78.4481C27.3374 81.5461 32.4765 85.8833 37.7249 78.4481C42.9732 71.0129 45.1965 69.4314 47.0189 70.4793C53.0326 73.9372 50.9278 78.7215 56.7229 79.2682C61.0966 79.6808 59.7298 71.9827 68.8871 71.9827C75.4476 71.9827 73.8734 81.2725 83.3339 81.2725C88.0642 81.2725 89.2467 71.9827 93.977 71.9827C99.4477 71.9827 102.255 76.1246 105.803 74.1771C108.563 72.6621 118.811 62.7837 108.168 50.5258C107.473 56.1289 103.918 61.1628 101.416 62.237C93.3523 65.6995 77.2791 69.6722 64.9235 62.7837C52.5679 55.8952 36.6314 59.549 30.2076 62.237Z" fill="#88C23A" stroke="black" stroke-width="4.09168"/>
<path d="M30.2077 62.2371C25.5607 64.1816 15.0366 66.4093 9.56952 62.2371C-0.0525138 55.3486 4.75792 43.7025 8.36589 41.1056C9.01898 45.5554 107.246 39.1921 107.246 39.1921C110.707 49.6889 104.97 60.7112 101.416 62.2371C93.3523 65.6996 77.2791 69.6723 64.9236 62.7838C52.568 55.8953 36.6315 59.5491 30.2077 62.2371Z" fill="#CD0067" stroke="black" stroke-width="4.08942"/>
<path d="M18.2632 53.6693C3.61151 49.5143 8.14917 33.4411 12.7962 28.6574C59.0515 -18.9584 112.57 9.79606 109.29 34.1245C106.01 58.4529 77.991 58.1796 66.6468 52.8492C55.3026 47.5188 43.5484 45.8787 36.0312 50.5257C30.0174 54.2433 21.6802 54.1704 18.2632 53.6693Z" fill="#FFCC00" stroke="black" stroke-width="4.08942"/>
<path d="M55.0153 31.7783C56.0827 41.5919 67.1492 40.7023 65.9628 29.7947L55.0153 31.7783Z" fill="black"/>
<path d="M45.664 26.6512C45.664 28.3873 44.2565 29.7948 42.5204 29.7948C40.7843 29.7948 39.3768 28.3873 39.3768 26.6512C39.3768 24.9151 40.7843 23.5076 42.5204 23.5076C44.2565 23.5076 45.664 24.9151 45.664 26.6512Z" fill="black"/>
<path d="M76.5528 20.3641C76.5528 22.1002 75.1454 23.5076 73.4092 23.5076C71.6731 23.5076 70.2656 22.1002 70.2656 20.3641C70.2656 18.6279 71.6731 17.2205 73.4092 17.2205C75.1454 17.2205 76.5528 18.6279 76.5528 20.3641Z" fill="black"/>
</svg>
