<svg width="121" height="37" viewBox="0 0 121 37" fill="none" xmlns="http://www.w3.org/2000/svg">
<path d="M27.0673 35.0466C38.3562 39.247 38.7563 28.405 37.8287 25.0842C31.7575 20.1003 11.8379 23.9736 2.63695 26.5331C2.63695 33.4629 5.95849 36.2595 11.3392 34.19C15.3273 32.6561 19.2032 32.1205 27.0673 35.0466Z" fill="#FFCC00" stroke="black" stroke-width="1.4313"/>
<path d="M10.5426 21.733C8.91613 22.4135 5.2327 23.1933 3.31923 21.733C2.47183 21.1263 1.94425 20.519 1.64933 19.9354C0.973223 21.5233 0.31171 26.1943 2.506 27.072C2.93653 27.2474 4.04635 27.3973 5.04135 26.5936C6.28511 25.5891 8.34209 26.2109 8.8683 27.4069C9.53801 28.4912 11.3367 30.0092 13.1736 27.4069C15.0105 24.8045 15.7887 24.251 16.4265 24.6178C18.5313 25.828 17.7946 27.5025 19.8229 27.6939C21.3537 27.8383 20.8753 25.144 24.0804 25.144C26.3766 25.144 25.8256 28.3954 29.1368 28.3954C30.7924 28.3954 31.2063 25.144 32.8618 25.144C34.7766 25.144 35.7591 26.5936 37.0008 25.912C37.9668 25.3817 41.5537 21.9243 37.8286 17.634C37.5855 19.5951 36.3412 21.357 35.4656 21.733C32.6432 22.9448 27.0176 24.3353 22.6931 21.9243C18.3687 19.5133 12.7909 20.7922 10.5426 21.733Z" fill="#88C23A" stroke="black" stroke-width="1.43209"/>
<path d="M10.5426 21.733C8.91616 22.4135 5.23273 23.1932 3.31926 21.733C-0.048448 19.322 1.6352 15.2459 2.89799 14.337C3.12657 15.8944 37.506 13.6672 37.506 13.6672C38.7173 17.3411 36.7093 21.1989 35.4656 21.733C32.6432 22.9448 27.0176 24.3353 22.6932 21.9243C18.3687 19.5133 12.7909 20.7922 10.5426 21.733Z" fill="#CD0067" stroke="black" stroke-width="1.4313"/>
<path d="M6.36206 18.7342C1.23396 17.28 2.82214 11.6544 4.44859 9.98009C20.6379 -6.68545 39.3694 3.37862 38.2214 11.8936C37.0733 20.4085 27.2667 20.3129 23.2963 18.4472C19.3258 16.5816 15.2119 16.0075 12.5808 17.634C10.476 18.9352 7.55798 18.9096 6.36206 18.7342Z" fill="#FFCC00" stroke="black" stroke-width="1.4313"/>
<path d="M19.2252 11.0724C19.5989 14.5072 23.4721 14.1958 23.0569 10.3782L19.2252 11.0724Z" fill="black"/>
<path d="M15.9523 9.27793C15.9523 9.88558 15.4597 10.3782 14.852 10.3782C14.2444 10.3782 13.7518 9.88558 13.7518 9.27793C13.7518 8.67028 14.2444 8.17768 14.852 8.17768C15.4597 8.17768 15.9523 8.67028 15.9523 9.27793Z" fill="black"/>
<path d="M26.7634 7.07743C26.7634 7.68508 26.2708 8.17768 25.6631 8.17768C25.0555 8.17768 24.5629 7.68508 24.5629 7.07743C24.5629 6.46978 25.0555 5.97718 25.6631 5.97718C26.2708 5.97718 26.7634 6.46978 26.7634 7.07743Z" fill="black"/>
<path d="M57.9502 27.3653C57.8504 27.382 57.6842 27.3903 57.4515 27.3903C57.2188 27.4069 56.9695 27.4152 56.7036 27.4152C56.4376 27.4152 56.18 27.4069 55.9307 27.3903C55.698 27.3903 55.5318 27.3903 55.4321 27.3903C55.349 27.3736 55.2575 27.357 55.1578 27.3404C55.0581 27.3072 54.9667 27.2573 54.8836 27.1908C54.8005 27.1243 54.7423 27.0412 54.709 26.9415C54.6758 26.8418 54.6509 26.742 54.6342 26.6423C54.6342 26.5592 54.6259 26.4096 54.6093 26.1935C54.6093 25.9608 54.6093 25.7198 54.6093 25.4705C54.6093 25.2046 54.6093 24.9636 54.6093 24.7475C54.6093 24.5148 54.6093 24.3569 54.6093 24.2738C54.6093 23.6588 54.6093 23.0521 54.6093 22.4538C54.6259 21.8388 54.6342 21.2238 54.6342 20.6088C54.6342 19.9938 54.6259 19.3789 54.6093 18.7639C54.6093 18.1489 54.601 17.5256 54.5844 16.894C54.5844 16.761 54.5844 16.4868 54.5844 16.0713C54.5844 15.6391 54.5844 15.182 54.5844 14.7C54.5844 14.218 54.5761 13.7692 54.5594 13.3537C54.5594 12.9215 54.5594 12.6307 54.5594 12.4811C54.5594 12.4146 54.5511 12.2899 54.5345 12.1071C54.5345 11.9243 54.5262 11.7248 54.5096 11.5087C54.5096 11.2927 54.5013 11.0932 54.4846 10.9104C54.4846 10.7109 54.4846 10.578 54.4846 10.5115C54.4846 10.4284 54.493 10.3453 54.5096 10.2622C54.5262 10.179 54.5511 10.0959 54.5844 10.0128C54.6509 9.91311 54.734 9.83831 54.8337 9.78845C54.95 9.73859 55.0664 9.69703 55.1827 9.66379C55.3822 9.61393 55.5816 9.59731 55.7811 9.61393C55.9972 9.61393 56.2049 9.59731 56.4044 9.56406C56.7036 9.5142 57.0028 9.48927 57.3019 9.48927C57.6011 9.48927 57.892 9.48927 58.1745 9.48927C58.7397 9.48927 59.2965 9.48927 59.845 9.48927C60.3935 9.47265 60.942 9.45603 61.4905 9.43941C61.5902 9.43941 61.798 9.43941 62.1138 9.43941C62.4296 9.42278 62.762 9.41447 63.111 9.41447C63.4601 9.39785 63.7925 9.38954 64.1083 9.38954C64.4241 9.37292 64.6402 9.37292 64.7565 9.38954C64.7898 9.38954 64.8479 9.39785 64.9311 9.41447C65.0308 9.43109 65.0973 9.43109 65.1305 9.41447C65.3632 9.38123 65.6125 9.38954 65.8785 9.43941C66.161 9.47265 66.3854 9.58068 66.5516 9.76352C66.6347 9.84662 66.6929 9.95466 66.7261 10.0876C66.7594 10.2206 66.7843 10.3536 66.8009 10.4865C66.8176 10.6195 66.8259 10.8107 66.8259 11.06C66.8259 11.2927 66.8176 11.542 66.8009 11.8079C66.8009 12.0572 66.776 12.2982 66.7261 12.5309C66.6763 12.747 66.6098 12.9049 66.5267 13.0046C66.4436 13.1044 66.3272 13.1792 66.1776 13.229C66.0447 13.2789 65.9117 13.3121 65.7787 13.3288C65.7122 13.3288 65.571 13.3371 65.3549 13.3537C65.1388 13.3537 64.9144 13.362 64.6817 13.3786C64.449 13.3786 64.2247 13.3786 64.0086 13.3786C63.7925 13.3786 63.6512 13.3786 63.5847 13.3786C62.7371 13.4119 61.8977 13.4368 61.0666 13.4534C60.2522 13.47 59.4211 13.4783 58.5735 13.4783V16.1959C59.1552 16.1128 59.7452 16.0546 60.3436 16.0214C60.942 15.9715 61.5403 15.9383 62.1387 15.9217C62.4213 15.905 62.7038 15.8801 62.9864 15.8469C63.2689 15.8136 63.5515 15.797 63.8341 15.797C63.9836 15.797 64.1332 15.8053 64.2828 15.8219C64.4324 15.8386 64.5737 15.8884 64.7067 15.9715C64.8729 16.0713 64.9975 16.2458 65.0806 16.4951C65.1638 16.7278 65.2136 16.9854 65.2302 17.268C65.2635 17.5339 65.2718 17.8165 65.2552 18.1157C65.2385 18.3982 65.2219 18.6392 65.2053 18.8387C65.1721 18.9883 65.1305 19.1379 65.0806 19.2874C65.0474 19.437 64.9726 19.5534 64.8563 19.6365C64.7233 19.7528 64.5654 19.8276 64.3826 19.8609C64.2163 19.8775 64.0418 19.8858 63.859 19.8858C63.6928 19.9024 63.5266 19.9107 63.3604 19.9107C63.2108 19.8941 63.0446 19.8858 62.8617 19.8858C62.147 19.8858 61.4323 19.9191 60.7176 19.9855C60.0195 20.052 59.3214 20.1268 58.6233 20.2099V24.922C58.6233 24.9553 58.6233 25.0218 58.6233 25.1215C58.6399 25.2046 58.6566 25.2628 58.6732 25.296C58.6898 25.4955 58.7064 25.7032 58.723 25.9193C58.7397 26.1187 58.7314 26.3182 58.6981 26.5177C58.6649 26.634 58.6316 26.742 58.5984 26.8418C58.5818 26.9415 58.5319 27.0329 58.4488 27.116C58.3158 27.249 58.1496 27.3321 57.9502 27.3653Z" fill="black"/>
<path d="M71.9378 26.9914C71.8381 27.0911 71.6802 27.1742 71.4641 27.2407C71.2647 27.2905 71.0486 27.3321 70.8159 27.3653C70.5832 27.3986 70.3505 27.4152 70.1178 27.4152C69.9018 27.4318 69.7272 27.4318 69.5943 27.4152C69.3782 27.3986 69.1621 27.3487 68.946 27.2656C68.73 27.1659 68.5721 27.0246 68.4723 26.8418C68.4059 26.7088 68.3394 26.4844 68.2729 26.1686C68.223 25.8362 68.1732 25.4955 68.1233 25.1464C68.0734 24.7807 68.0319 24.4317 67.9986 24.0993C67.9654 23.7669 67.9488 23.5258 67.9488 23.3763C67.8657 22.0964 67.8241 20.8249 67.8241 19.5617C67.8407 18.2985 67.8657 17.027 67.8989 15.7471C67.9155 15.1986 67.9321 14.6501 67.9488 14.1016C67.982 13.5365 67.9986 12.9797 67.9986 12.4312C67.9986 12.2484 67.9903 12.0739 67.9737 11.9076C67.9737 11.7414 67.9737 11.5669 67.9737 11.3841C67.9737 11.2844 67.982 11.1597 67.9986 11.0101C68.0153 10.8439 68.0402 10.6777 68.0734 10.5115C68.1067 10.3453 68.1482 10.1874 68.1981 10.0378C68.2646 9.88818 68.3394 9.78014 68.4225 9.71365C68.5222 9.63055 68.6718 9.57237 68.8712 9.53913C69.0707 9.48927 69.2785 9.45603 69.4945 9.43941C69.7272 9.42278 69.9516 9.42278 70.1677 9.43941C70.4004 9.45603 70.5832 9.47265 70.7162 9.48927C70.9156 9.52251 71.1151 9.54744 71.3146 9.56406C71.5306 9.58068 71.7135 9.65548 71.8631 9.78845C71.996 9.9048 72.0791 10.0544 72.1124 10.2372C72.1622 10.4034 72.1789 10.5696 72.1622 10.7359C72.1456 11.168 72.1207 11.5918 72.0874 12.0074C72.0542 12.4229 72.021 12.8467 71.9877 13.2789C71.9545 13.4783 71.9295 13.8773 71.9129 14.4756C71.8963 15.0574 71.8797 15.6807 71.8631 16.3455C71.8464 16.9937 71.8298 17.617 71.8132 18.2154C71.8132 18.7971 71.8132 19.1877 71.8132 19.3872C71.8132 20.3678 71.8215 21.3485 71.8381 22.3291C71.8714 23.2931 71.9794 24.2489 72.1622 25.1963C72.1955 25.3791 72.2204 25.5536 72.237 25.7198C72.2703 25.8861 72.2703 26.0606 72.237 26.2434C72.2204 26.3764 72.1872 26.5177 72.1373 26.6672C72.1041 26.8002 72.0376 26.9083 71.9378 26.9914Z" fill="black"/>
<path d="M85.43 27.4651C85.2472 27.5482 85.056 27.5897 84.8566 27.5897C84.6571 27.6063 84.4494 27.6147 84.2333 27.6147C84.1834 27.6147 84.1003 27.6063 83.984 27.5897C83.8676 27.5897 83.7347 27.5814 83.5851 27.5648C83.4521 27.5648 83.3274 27.5565 83.2111 27.5399C83.0947 27.5399 83.0199 27.5399 82.9867 27.5399C82.9036 27.5399 82.754 27.5399 82.5379 27.5399C82.3385 27.5399 82.1141 27.5399 81.8648 27.5399C81.6155 27.5565 81.3828 27.5731 81.1667 27.5897C80.9506 27.6063 80.801 27.6147 80.7179 27.6147C80.1196 27.6313 79.5212 27.623 78.9228 27.5897C78.3411 27.5565 77.751 27.4817 77.1527 27.3653C76.7538 27.2822 76.3465 27.1742 75.931 27.0412C75.5321 26.9083 75.1664 26.7171 74.834 26.4678C74.5515 26.2351 74.3188 25.9608 74.1359 25.645C73.9531 25.3292 73.8201 25.0051 73.737 24.6727C73.5874 24.1741 73.5126 23.6588 73.5126 23.1269C73.5126 22.5784 73.6041 22.0632 73.7869 21.5812C73.9199 21.2321 74.0944 20.908 74.3105 20.6088C74.5432 20.293 74.8008 20.0105 75.0833 19.7612C75.4158 19.462 75.7897 19.2127 76.2053 19.0132C76.6374 18.8137 77.0862 18.6392 77.5516 18.4896C77.9837 18.3567 78.4242 18.2652 78.873 18.2154C79.3217 18.1489 79.7788 18.099 80.2442 18.0658C80.56 18.0325 80.8758 18.0076 81.1916 17.991C81.5074 17.9744 81.8315 17.9827 82.164 18.0159C82.1141 17.7334 82.031 17.4674 81.9146 17.2181C81.8149 16.9522 81.6736 16.7112 81.4908 16.4951C81.2747 16.2292 81.0254 16.038 80.7428 15.9217C80.5102 15.8219 80.2608 15.7554 79.9949 15.7222C79.729 15.689 79.4713 15.6807 79.222 15.6973C78.873 15.7305 78.5322 15.797 78.1998 15.8967C77.8674 15.9798 77.5433 16.0713 77.2275 16.171C76.9449 16.2873 76.679 16.4203 76.4297 16.5699C76.197 16.7029 75.9393 16.8109 75.6568 16.894C75.4075 16.9439 75.1914 16.9356 75.0085 16.8691C74.8756 16.8026 74.7426 16.7195 74.6096 16.6198C74.4933 16.5034 74.3936 16.3871 74.3105 16.2707C74.1775 16.1045 74.0694 15.9383 73.9863 15.7721C73.9032 15.6059 73.8201 15.4396 73.737 15.2734C73.6539 15.1072 73.5957 14.9327 73.5625 14.7499C73.5459 14.567 73.5708 14.3842 73.6373 14.2014C73.7204 14.0185 73.8284 13.8523 73.9614 13.7027C74.111 13.5365 74.2772 13.3869 74.46 13.254C74.5099 13.2373 74.593 13.1958 74.7094 13.1293C74.8257 13.0628 74.9504 12.9963 75.0833 12.9299C75.2329 12.8634 75.3659 12.8052 75.4822 12.7553C75.5986 12.7055 75.6817 12.6722 75.7316 12.6556C76.1471 12.4728 76.5792 12.3398 77.028 12.2567C77.4768 12.1736 77.9172 12.1154 78.3494 12.0822C78.9311 12.0323 79.5295 12.0323 80.1445 12.0822C80.7595 12.1154 81.3495 12.2235 81.9146 12.4063C82.38 12.5725 82.8288 12.7886 83.261 13.0545C83.6931 13.3204 84.0671 13.6446 84.3829 14.0268C84.6488 14.3593 84.8898 14.7 85.1059 15.049C85.322 15.3981 85.5048 15.7638 85.6544 16.146C85.8705 16.7444 86.0201 17.3677 86.1032 18.0159C86.1863 18.6642 86.2278 19.3041 86.2278 19.9357C86.2278 20.5507 86.1946 21.1656 86.1281 21.7806C86.0782 22.379 86.0367 22.994 86.0034 23.6256C85.9702 24.0577 85.9536 24.4816 85.9536 24.8971C85.9702 25.3126 85.9619 25.7365 85.9287 26.1686C85.912 26.3016 85.8954 26.4429 85.8788 26.5925C85.8622 26.742 85.8289 26.8833 85.7791 27.0163C85.7292 27.2157 85.6129 27.3653 85.43 27.4651ZM77.9754 23.7752C78.6735 23.8915 79.3633 23.9497 80.0448 23.9497C80.7262 23.9497 81.4077 23.9331 82.0892 23.8998C82.1058 23.5175 82.1307 23.1519 82.164 22.8028C82.1972 22.4372 82.2304 22.0632 82.2637 21.6809C81.9977 21.6809 81.7318 21.6809 81.4659 21.6809C81.1999 21.6809 80.9257 21.6892 80.6431 21.7058C80.2276 21.7224 79.8121 21.7723 79.3965 21.8554C78.981 21.9219 78.5821 22.0383 78.1998 22.2045C77.9173 22.2876 77.6929 22.4372 77.5267 22.6532C77.4934 22.7197 77.4602 22.8194 77.4269 22.9524C77.3937 23.0688 77.3854 23.1602 77.402 23.2267C77.4186 23.3264 77.4851 23.4344 77.6014 23.5508C77.7178 23.6671 77.8425 23.7419 77.9754 23.7752Z" fill="black"/>
<path d="M95.4117 26.9415C95.0128 27.1908 94.5723 27.3404 94.0903 27.3903C93.6083 27.4568 93.1512 27.4069 92.719 27.2407C92.1872 27.0246 91.7135 26.6839 91.2979 26.2185C90.899 25.7365 90.5583 25.2295 90.2757 24.6976C89.827 23.8666 89.453 23.0023 89.1538 22.1047C88.8546 21.2072 88.5887 20.2847 88.356 19.3373C88.223 18.7888 88.1067 18.2403 88.007 17.6918C87.9072 17.1267 87.8075 16.5616 87.7078 15.9965C87.6413 15.664 87.5914 15.3233 87.5582 14.9743C87.5249 14.6252 87.4917 14.2679 87.4585 13.9022C87.4418 13.7194 87.4501 13.5365 87.4834 13.3537C87.5332 13.1542 87.608 12.988 87.7078 12.8551C87.8407 12.6722 88.0069 12.5393 88.2064 12.4561C88.4059 12.373 88.597 12.3066 88.7798 12.2567C88.9128 12.2235 89.079 12.1902 89.2785 12.157C89.4779 12.1237 89.6774 12.1071 89.8768 12.1071C90.0929 12.0905 90.2924 12.0988 90.4752 12.132C90.658 12.1487 90.7993 12.2068 90.899 12.3066C90.9489 12.373 90.9904 12.4312 91.0237 12.4811C91.0569 12.5309 91.0902 12.5808 91.1234 12.6307C91.273 12.9963 91.3644 13.3786 91.3977 13.7775C91.4309 14.1598 91.4808 14.5421 91.5473 14.9244C91.6636 15.5892 91.78 16.2624 91.8963 16.9439C92.0293 17.6253 92.1789 18.2985 92.3451 18.9633C92.5279 19.6282 92.7357 20.2847 92.9684 20.9329C93.2011 21.5645 93.4919 22.1712 93.841 22.753C94.0737 22.4372 94.2814 22.1047 94.4643 21.7557C94.6471 21.39 94.8299 21.0327 95.0128 20.6836C95.4117 19.8359 95.7524 18.9716 96.035 18.0907C96.3175 17.1932 96.5752 16.2956 96.8079 15.3981C96.8245 15.3316 96.8494 15.207 96.8827 15.0241C96.9325 14.8413 96.9824 14.6501 97.0322 14.4507C97.0821 14.2346 97.1237 14.0435 97.1569 13.8773C97.2068 13.6944 97.2483 13.5698 97.2816 13.5033C97.4145 13.121 97.5974 12.8135 97.8301 12.5808C98.0295 12.398 98.2788 12.3066 98.578 12.3066C98.8938 12.2899 99.1847 12.3149 99.4506 12.3814C99.6501 12.4645 99.8412 12.5393 100.024 12.6057C100.207 12.6722 100.39 12.7553 100.573 12.8551C100.706 12.9215 100.83 13.0046 100.947 13.1044C101.063 13.2041 101.154 13.3204 101.221 13.4534C101.287 13.5864 101.312 13.736 101.296 13.9022C101.296 14.0684 101.279 14.218 101.246 14.351C101.196 14.567 101.129 14.7748 101.046 14.9743C100.963 15.1571 100.897 15.3649 100.847 15.5975C100.564 16.6945 100.265 17.7832 99.9493 18.8636C99.6335 19.9274 99.2595 20.9662 98.8273 21.9801C98.6445 22.4288 98.445 22.8776 98.229 23.3264C98.0129 23.7585 97.7802 24.1741 97.5309 24.573C97.2317 25.0218 96.9076 25.4622 96.5585 25.8944C96.2261 26.3099 95.8438 26.6589 95.4117 26.9415Z" fill="black"/>
<path d="M106.192 13.8523C106.059 13.9687 105.901 14.0435 105.718 14.0767C105.535 14.11 105.352 14.1266 105.17 14.1266C105.053 14.1266 104.87 14.1266 104.621 14.1266C104.388 14.11 104.139 14.0933 103.873 14.0767C103.624 14.0601 103.383 14.0352 103.15 14.0019C102.917 13.9687 102.751 13.9271 102.651 13.8773C102.469 13.7775 102.319 13.603 102.203 13.3537C102.169 13.2706 102.144 13.1293 102.128 12.9299C102.111 12.7138 102.095 12.4894 102.078 12.2567C102.078 12.0074 102.078 11.7747 102.078 11.5586C102.078 11.3425 102.078 11.1846 102.078 11.0849C102.078 11.035 102.086 10.9602 102.103 10.8605C102.12 10.7442 102.136 10.6361 102.153 10.5364C102.186 10.4201 102.219 10.3203 102.253 10.2372C102.286 10.1375 102.319 10.0627 102.352 10.0128C102.435 9.92973 102.535 9.87156 102.651 9.83831C102.784 9.78845 102.917 9.75521 103.05 9.73859C103.133 9.73859 103.291 9.73859 103.524 9.73859C103.757 9.73859 104.006 9.73859 104.272 9.73859C104.538 9.73859 104.787 9.7469 105.02 9.76352C105.253 9.76352 105.411 9.76352 105.494 9.76352C105.627 9.78014 105.768 9.81338 105.917 9.86325C106.067 9.89649 106.183 9.97128 106.267 10.0876C106.366 10.2206 106.441 10.4201 106.491 10.686C106.557 10.9519 106.599 11.2345 106.616 11.5337C106.632 11.8329 106.632 12.1237 106.616 12.4063C106.616 12.6722 106.607 12.8883 106.591 13.0545C106.557 13.2041 106.516 13.3537 106.466 13.5033C106.416 13.6529 106.325 13.7692 106.192 13.8523ZM105.568 27.4152C105.419 27.4484 105.211 27.4734 104.945 27.49C104.679 27.5066 104.405 27.5066 104.122 27.49C103.84 27.49 103.574 27.4734 103.325 27.4401C103.075 27.4069 102.884 27.3487 102.751 27.2656C102.668 27.2157 102.593 27.1493 102.527 27.0662C102.477 26.983 102.435 26.8999 102.402 26.8168C102.369 26.7504 102.344 26.6257 102.327 26.4429C102.311 26.26 102.294 26.0689 102.277 25.8694C102.261 25.67 102.244 25.4788 102.228 25.296C102.228 25.1132 102.228 24.9802 102.228 24.8971C102.178 23.9995 102.144 23.102 102.128 22.2045C102.128 21.3069 102.144 20.4094 102.178 19.5118C102.194 19.2293 102.194 18.9218 102.178 18.5894C102.178 18.2569 102.203 17.9411 102.253 17.642C102.302 17.3428 102.394 17.0851 102.527 16.8691C102.66 16.653 102.868 16.5283 103.15 16.4951C103.283 16.4785 103.474 16.4702 103.723 16.4702C103.989 16.4535 104.264 16.4535 104.546 16.4702C104.829 16.4868 105.095 16.52 105.344 16.5699C105.593 16.6198 105.785 16.6779 105.917 16.7444C106.05 16.8275 106.15 16.9522 106.217 17.1184C106.283 17.2846 106.325 17.4508 106.341 17.617C106.358 18.0824 106.341 18.5478 106.291 19.0132C106.258 19.4786 106.208 19.9523 106.142 20.4343C106.125 20.5174 106.117 20.667 106.117 20.8831C106.117 21.0825 106.117 21.3069 106.117 21.5562C106.117 21.8056 106.117 22.0382 106.117 22.2543C106.117 22.4704 106.117 22.62 106.117 22.7031C106.117 22.7862 106.125 22.9441 106.142 23.1768C106.175 23.3929 106.208 23.6339 106.242 23.8998C106.275 24.1658 106.308 24.4151 106.341 24.6478C106.375 24.8805 106.391 25.0301 106.391 25.0965C106.391 25.1797 106.391 25.3126 106.391 25.4955C106.408 25.6617 106.408 25.8445 106.391 26.044C106.375 26.2268 106.358 26.4013 106.341 26.5675C106.325 26.7337 106.291 26.8584 106.242 26.9415C106.175 27.0745 106.075 27.1825 105.942 27.2656C105.826 27.3321 105.701 27.382 105.568 27.4152Z" fill="black"/>
<path d="M119.687 27.4651C119.504 27.5482 119.313 27.5897 119.113 27.5897C118.914 27.6063 118.706 27.6147 118.49 27.6147C118.44 27.6147 118.357 27.6063 118.241 27.5897C118.124 27.5897 117.991 27.5814 117.842 27.5648C117.709 27.5648 117.584 27.5565 117.468 27.5399C117.352 27.5399 117.277 27.5399 117.244 27.5399C117.16 27.5399 117.011 27.5399 116.795 27.5399C116.595 27.5399 116.371 27.5399 116.122 27.5399C115.872 27.5565 115.64 27.5731 115.424 27.5897C115.207 27.6063 115.058 27.6147 114.975 27.6147C114.376 27.6313 113.778 27.623 113.18 27.5897C112.598 27.5565 112.008 27.4817 111.409 27.3653C111.011 27.2822 110.603 27.1742 110.188 27.0412C109.789 26.9083 109.423 26.7171 109.091 26.4678C108.808 26.2351 108.576 25.9608 108.393 25.645C108.21 25.3292 108.077 25.0051 107.994 24.6727C107.844 24.1741 107.769 23.6588 107.769 23.1269C107.769 22.5784 107.861 22.0632 108.044 21.5812C108.177 21.2321 108.351 20.908 108.567 20.6088C108.8 20.293 109.058 20.0105 109.34 19.7612C109.673 19.462 110.047 19.2127 110.462 19.0132C110.894 18.8137 111.343 18.6392 111.808 18.4896C112.241 18.3567 112.681 18.2652 113.13 18.2154C113.579 18.1489 114.036 18.099 114.501 18.0658C114.817 18.0325 115.133 18.0076 115.448 17.991C115.764 17.9744 116.088 17.9827 116.421 18.0159C116.371 17.7334 116.288 17.4674 116.171 17.2181C116.072 16.9522 115.93 16.7112 115.748 16.4951C115.532 16.2292 115.282 16.038 115 15.9217C114.767 15.8219 114.518 15.7554 114.252 15.7222C113.986 15.689 113.728 15.6807 113.479 15.6973C113.13 15.7305 112.789 15.797 112.457 15.8967C112.124 15.9798 111.8 16.0713 111.484 16.171C111.202 16.2873 110.936 16.4203 110.686 16.5699C110.454 16.7029 110.196 16.8109 109.914 16.894C109.664 16.9439 109.448 16.9356 109.265 16.8691C109.132 16.8026 108.999 16.7195 108.866 16.6198C108.75 16.5034 108.65 16.3871 108.567 16.2707C108.434 16.1045 108.326 15.9383 108.243 15.7721C108.16 15.6059 108.077 15.4396 107.994 15.2734C107.911 15.1072 107.853 14.9327 107.819 14.7499C107.803 14.567 107.828 14.3842 107.894 14.2014C107.977 14.0185 108.085 13.8523 108.218 13.7027C108.368 13.5365 108.534 13.3869 108.717 13.254C108.767 13.2373 108.85 13.1958 108.966 13.1293C109.083 13.0628 109.207 12.9963 109.34 12.9299C109.49 12.8634 109.623 12.8052 109.739 12.7553C109.855 12.7055 109.939 12.6722 109.988 12.6556C110.404 12.4728 110.836 12.3398 111.285 12.2567C111.734 12.1736 112.174 12.1154 112.606 12.0822C113.188 12.0323 113.786 12.0323 114.401 12.0822C115.016 12.1154 115.606 12.2235 116.171 12.4063C116.637 12.5725 117.086 12.7886 117.518 13.0545C117.95 13.3204 118.324 13.6446 118.64 14.0268C118.906 14.3593 119.147 14.7 119.363 15.049C119.579 15.3981 119.762 15.7638 119.911 16.146C120.127 16.7444 120.277 17.3677 120.36 18.0159C120.443 18.6642 120.485 19.3041 120.485 19.9357C120.485 20.5507 120.451 21.1656 120.385 21.7806C120.335 22.379 120.294 22.994 120.26 23.6256C120.227 24.0577 120.21 24.4816 120.21 24.8971C120.227 25.3126 120.219 25.7365 120.185 26.1686C120.169 26.3016 120.152 26.4429 120.136 26.5925C120.119 26.742 120.086 26.8833 120.036 27.0163C119.986 27.2157 119.87 27.3653 119.687 27.4651ZM112.232 23.7752C112.93 23.8915 113.62 23.9497 114.302 23.9497C114.983 23.9497 115.665 23.9331 116.346 23.8998C116.363 23.5175 116.388 23.1519 116.421 22.8028C116.454 22.4372 116.487 22.0632 116.52 21.6809C116.255 21.6809 115.989 21.6809 115.723 21.6809C115.457 21.6809 115.182 21.6892 114.9 21.7058C114.484 21.7224 114.069 21.7723 113.653 21.8554C113.238 21.9219 112.839 22.0383 112.457 22.2045C112.174 22.2876 111.95 22.4372 111.783 22.6532C111.75 22.7197 111.717 22.8194 111.684 22.9524C111.65 23.0688 111.642 23.1602 111.659 23.2267C111.675 23.3264 111.742 23.4344 111.858 23.5508C111.975 23.6671 112.099 23.7419 112.232 23.7752Z" fill="black"/>
</svg>
